Coordinates
version=1
nRows=6
nColumns=34
inDegrees=yes

Units are S.I. units (second, meters, Newtons, ...)
If the header above contains a line with 'inDegrees', this indicates whether rotational values are in degrees (yes) or radians (no).

endheader
time	pelvis_tilt	pelvis_list	pelvis_rotation	pelvis_tx	pelvis_ty	pelvis_tz	hip_flexion_r	hip_adduction_r	hip_rotation_r	knee_angle_r	ankle_angle_r	subtalar_angle_r	mtp_angle_r	hip_flexion_l	hip_adduction_l	hip_rotation_l	knee_angle_l	ankle_angle_l	subtalar_angle_l	mtp_angle_l	lumbar_extension	lumbar_bending	lumbar_rotation	arm_flex_r	arm_add_r	arm_rot_r	elbow_flex_r	pro_sup_r	arm_flex_l	arm_add_l	arm_rot_l	elbow_flex_l	pro_sup_l
      2.98333330	     -5.64784814	      0.60139354	      5.22256344	      0.94914926	      0.98782562	     -0.14776405	      2.15397985	     -1.23147581	     -2.19924584	      6.90934531	      6.43599121	    -15.90633039	      0.00000000	     -1.18283459	     -0.06887360	      6.51897785	      0.51025590	      7.18217951	      0.61508250	      0.00000000	     -0.31169854	      0.55208149	     -3.59922026	     12.09839586	     -3.99128013	     35.01070060	    129.69191315	    102.54113134	     22.32270367	     -4.92437581	     42.99460596	    134.07576214	     86.50957760
      3.00000000	     -5.63602980	      0.66433948	      5.31102616	      0.95046094	      0.98780744	     -0.14663819	      1.81735201	     -1.22911378	     -2.16187677	      6.30511168	      6.24085180	    -15.73163497	      0.00000000	     -1.03869910	     -0.08475902	      6.51271249	      0.72234680	      7.15112960	      0.51869719	      0.00000000	     -0.05163894	      0.45132069	     -3.50793802	     12.43261390	     -4.04400618	     34.57955778	    130.02033355	    102.46847248	     22.66406060	     -4.94467432	     42.54632970	    134.21068590	     86.40125961
      3.01666670	     -5.23100560	      0.67009614	      5.33288909	      0.95183333	      0.98332881	     -0.14731794	      1.13352874	     -1.18414855	     -2.41907133	      5.86980820	      6.06222840	    -15.44648266	      0.00000000	     -1.52212038	     -0.20206414	      6.80039707	      0.70917140	      7.17683204	      0.16822720	      0.00000000	     -0.22579430	      0.49578745	     -3.32853242	     12.17552003	     -4.19471897	     33.18355073	    131.10135412	    102.12457906	     22.74073080	     -4.77289980	     41.35187450	    134.32893800	     85.83348859
      3.03333330	     -5.23290954	      0.73537862	      5.30605683	      0.95287540	      0.98537454	     -0.14661682	      0.76168109	     -1.21753876	     -2.25723879	      5.30715696	      6.17209300	    -15.33104268	      0.00000000	     -1.59117721	     -0.23337996	      6.86030246	      0.63646814	      7.14929305	      0.16906419	      0.00000000	      0.20196692	      0.40066889	     -3.26107747	     12.34999173	     -4.48093592	     33.02383448	    131.18922406	    102.08772212	     22.86626514	     -4.88848217	     41.35332509	    134.41583645	     85.76635605
      3.05000000	     -4.72704204	      0.69001544	      5.26530353	      0.95575840	      0.98818967	     -0.14655851	     -0.32957767	     -1.09953352	     -2.53119610	      4.47261947	      6.21422268	    -14.43556228	      0.00000000	     -2.41578596	     -0.41917467	      6.98077575	      0.26485880	      7.05154661	      0.14556499	      0.00000000	     -0.01512149	      0.42092516	     -2.99169159	     12.28627178	     -4.96027091	     32.31895593	    131.51578146	    101.77949116	     23.12161146	     -4.93857635	     41.88599712	    134.36033110	     85.13449001
      3.06666670	     -4.75165895	      0.72038493	      5.23211059	      0.95568440	      0.98370810	     -0.14489419	     -0.69559248	     -1.06502250	     -2.47098263	      3.90495395	      6.41725710	    -14.42054120	      0.00000000	     -2.57733843	     -0.45135794	      6.94433428	      0.11483703	      7.21131001	      0.07214309	      0.00000000	      0.50473643	      0.37386282	     -2.97373000	     12.39211684	     -5.28245329	     32.24897455	    131.63996192	    101.75975071	     23.17635799	     -4.99449632	     41.96014318	    134.46709712	     85.08384321
